<?xml version="1.0" encoding="UTF-8" standalone="no"?>
<!DOCTYPE svg PUBLIC "-//W3C//DTD SVG 1.1//EN" "http://www.w3.org/Graphics/SVG/1.1/DTD/svg11.dtd">
<svg width="100%" height="100%" viewBox="0 0 127 49" version="1.1" xmlns="http://www.w3.org/2000/svg" xmlns:xlink="http://www.w3.org/1999/xlink" xml:space="preserve" xmlns:serif="http://www.serif.com/" style="fill-rule:evenodd;clip-rule:evenodd;stroke-linejoin:round;stroke-miterlimit:2;">
    <g transform="matrix(1,0,0,1,-60,-59)">
        <g transform="matrix(1.01965,0,0,1.98857,0,0)">
            <g transform="matrix(0.192998,0,0,0.0989608,58.8438,29.9721)">
                <g transform="matrix(1,0,0,1,0,202.52)">
                    <path d="M0,-189.89L0,-183.83L15.14,-168.7L15.14,-21.189L0,-6.06L0,0L126,0L130.78,-44.31L122.78,-44.31L87,-7.98L52,-7.98L52,-86.92L70.17,-86.92L92.46,-61.04L101.27,-61.04L101.27,-121.04L92.46,-121.04L70.17,-94.91L52,-94.91L52,-181.91L82.56,-181.91L119.68,-144.2L127.68,-144.2L123,-189.89L0,-189.89Z" style="fill:rgb(254,242,209);fill-rule:nonzero;"/>
                </g>
                <g transform="matrix(1,0,0,1,172.39,69.319)">
                    <path d="M0,65.501C0,102.65 12.38,121.091 25,121.091C29.95,121.091 35.18,118.091 39.31,112.28L39.31,16.511C35.18,11.011 30.5,8.261 26.1,8.261C12.93,8.261 0,27.801 0,65.501M14.31,-6.049C23.548,-6.048 32.458,-2.616 39.31,3.581L39.31,-34.639C39.31,-43.729 33.26,-49.779 24.18,-49.779L24.18,-55.779L75.68,-69.319L75.68,112.011L90.06,127.141L90.06,133.2L54.49,133.2L43.75,119.681C35.22,129.86 23.94,134.82 12.66,134.82C-12.34,134.82 -37.7,110.051 -37.7,65.471C-37.7,20.371 -11.56,-6.049 14.31,-6.049" style="fill:rgb(254,242,209);fill-rule:nonzero;"/>
                </g>
                <g transform="matrix(1,0,0,1,454.11,76.4891)">
                    <path d="M0,114.741C9.08,114.741 19.26,102.081 21.47,94.1L21.47,71.261C21.47,63.56 22.569,52.261 23.12,40.72C6.609,50.621 -16.79,66.31 -16.79,94.1C-16.79,107.86 -9.11,114.741 0,114.741M23.39,32.741C23.39,12.651 20.64,-6.34 5.779,-6.34C-3.851,-6.34 -14.03,20.08 -17.891,31.361L-36.891,2.741C-30,-5.789 -12.931,-13.489 6.89,-13.489C46.79,-13.489 57.8,12.111 57.8,59.44L57.8,104.85L72.89,119.97L72.89,126.03L33.3,126.03L22.3,108.14C15.149,119.421 4.14,128.23 -11.271,128.23C-33.841,128.23 -55.58,114.47 -55.58,94.1C-55.591,53.93 -0.82,38.79 23.39,32.741" style="fill:rgb(254,242,209);fill-rule:nonzero;"/>
                </g>
                <g transform="matrix(1,0,0,1,548.39,82.1997)">
                    <path d="M0,99.13L0,18.22C0,9.14 -6.06,3.08 -15.14,3.08L-15.14,-2.92L36.32,-16.2L36.32,23.7C44.58,2.51 59.99,-18.4 83.66,-21.15L96.311,14.09C50.08,8.04 36.311,28.4 36.311,66.09L36.311,99.09L51.45,114.22L51.45,120.28L-15.149,120.28L-15.149,114.22L0,99.13Z" style="fill:rgb(254,242,209);fill-rule:nonzero;"/>
                </g>
                <g transform="matrix(1,0,0,1,339.01,132.086)">
                    <path d="M0,26.65L-0.01,26.65C-31.37,34.08 -49.26,-51.23 -18.43,-58.35C12.66,-65.54 30.271,19.5 0,26.65M63.3,-75.21L41.01,-100.8C39.63,-91.45 25.05,-64.48 15.41,-64.2C14.022,-64.25 12.645,-64.164 11.292,-64.479L11.29,-64.48C4.68,-66.427 -2.189,-67.354 -9.08,-67.23C-15.89,-67.23 -47.55,-66.5 -61.82,-40.92C-71.71,-23.15 -69.54,-0.05 -57.66,15.08C-53.447,20.376 -48.14,24.698 -42.1,27.75L-32.625,31.398C-34.502,31.785 -36.521,32.325 -38.479,33.12C-91.71,54.75 -71.21,127.45 -23.8,94.26C-2.149,79.1 8.8,30.12 28.59,50.33C39.95,61.33 27.04,79.4 13.01,80.11L41.641,111.74C47.771,106.96 54.04,99.74 56.45,91.6C70.62,43.75 33.311,17.11 -8.109,55.67C-45.479,90.45 -61.181,37.283 -12.041,35.102L-12.113,35.104C-11.192,35.129 -10.271,35.144 -9.35,35.14C55.32,35.14 66.601,-33.15 26.15,-58.15C42.66,-60.9 57.521,-68.33 63.3,-75.21" style="fill:rgb(254,242,209);fill-rule:nonzero;"/>
                </g>
            </g>
        </g>
    </g>
</svg>
