<?xml version="1.0" encoding="UTF-8" standalone="no"?><!DOCTYPE svg PUBLIC "-//W3C//DTD SVG 1.1//EN" "http://www.w3.org/Graphics/SVG/1.1/DTD/svg11.dtd"><svg width="100%" height="100%" viewBox="0 0 221 209" version="1.1" xmlns="http://www.w3.org/2000/svg" xmlns:xlink="http://www.w3.org/1999/xlink" xml:space="preserve" xmlns:serif="http://www.serif.com/" style="fill-rule:evenodd;clip-rule:evenodd;stroke-linejoin:round;stroke-miterlimit:2;"><g><path d="M220.545,53.91c-0.057,2.504 -1.058,4.123 -2.365,5.511c-4.575,4.853 -9.215,9.642 -13.814,14.471c-0.505,0.526 -0.878,0.573 -1.424,0.046c-6.037,-5.824 -12.085,-11.642 -18.148,-17.437c-0.559,-0.538 -0.509,-0.891 -0.005,-1.417c4.635,-4.795 9.231,-9.624 13.885,-14.401c1.399,-1.435 3.049,-2.482 5.191,-2.453c1.061,0.018 1.955,0.347 2.72,1.082c4.198,4.014 8.408,8.016 12.601,12.036c0.845,0.815 1.469,1.769 1.359,2.562Z" style="fill:#fef2d1;fill-rule:nonzero;"/><path d="M130.267,55.292c-0.708,-0.046 -1.152,-0.11 -1.595,-0.11l-113.194,0c-1.602,0 -1.604,0 -1.604,1.614c-0.001,45.522 -0.001,91.051 -0,136.574c-0,1.498 0.003,1.498 1.465,1.498c46.132,-0 92.264,-0 138.397,0.023c1.008,-0 1.339,-0.237 1.338,-1.302c-0.03,-22.22 -0.023,-44.447 -0.026,-66.667c0,-0.376 -0.042,-0.752 -0.064,-1.122c-0.177,-0.133 -0.354,-0.266 -0.53,-0.393c-0.219,0.41 -0.358,0.896 -0.669,1.22c-10.042,10.503 -20.106,20.983 -30.143,31.486c-0.678,0.711 -1.104,0.757 -1.825,0.058c-5.904,-5.715 -11.829,-11.406 -17.785,-17.068c-0.705,-0.671 -0.748,-1.122 -0.019,-1.706c0.166,-0.133 0.3,-0.306 0.449,-0.463c16.604,-17.333 33.211,-34.661 49.791,-52.012c0.419,-0.439 0.76,-1.162 0.764,-1.752c0.051,-7.467 0.035,-14.939 0.03,-22.406c0,-0.329 -0.055,-0.653 -0.108,-1.243c-0.541,0.515 -0.875,0.821 -1.202,1.145c-7.16,6.992 -14.329,13.985 -21.467,21.006c-0.706,0.694 -1.186,0.688 -2.011,0.15c-5.021,-3.279 -9.186,-7.414 -12.639,-12.301c-0.583,-0.827 -0.476,-1.313 0.157,-2.019c3.88,-4.326 7.717,-8.687 11.564,-13.042c0.271,-0.306 0.509,-0.642 0.926,-1.168Zm-130.27,153.543l-0,-167.696l1.638,0c46.559,0 93.119,-0.005 139.678,0.035c1.421,0 2.367,-0.439 3.324,-1.463c5.167,-5.529 10.249,-11.151 15.665,-16.426c6.968,-6.784 14.445,-13.007 22.73,-18.172c2.831,-1.764 5.792,-3.331 9.104,-3.973c1.279,-0.249 2.668,-0.278 3.952,-0.064c2.357,0.388 3.638,2.696 3.223,5.269c-0.418,2.586 -1.41,4.945 -2.652,7.218c-2.694,4.928 -6.08,9.375 -9.555,13.759c-5.356,6.756 -11.221,13.054 -17.259,19.196c-0.445,0.457 -0.778,1.238 -0.782,1.868c-0.055,7.184 -0.036,14.361 -0.033,21.544c0.001,0.347 0.039,0.7 0.077,1.33c0.484,-0.404 0.809,-0.63 1.079,-0.908c3.109,-3.233 6.224,-6.46 9.301,-9.722c0.568,-0.601 0.937,-0.659 1.556,-0.063c5.955,5.766 11.925,11.515 17.923,17.229c0.782,0.746 0.539,1.18 -0.081,1.828c-9.595,9.982 -19.163,19.993 -28.767,29.97c-0.782,0.81 -1.113,1.625 -1.111,2.753c0.026,31.561 0.02,63.117 0.02,94.672c0,1.81 -0.001,1.816 -1.835,1.816l-167.195,0Z" style="fill:#fef2d1;fill-rule:nonzero;"/><path d="M52.993,155.215c0,-1.394 -0.067,-2.787 0.012,-4.176c0.317,-5.523 0.841,-11.029 2.151,-16.408c1.119,-4.58 2.455,-9.115 5.031,-13.18c2.384,-3.76 5.603,-6.571 9.382,-8.826c5.104,-3.037 10.615,-4.824 16.53,-5.258c1.754,-0.133 3.067,-0.439 4.155,-2.139c6.389,-9.983 13.831,-19.185 21.357,-28.317c0.798,-0.966 1.602,-1.932 2.404,-2.898c0.878,-1.052 0.892,-1.035 1.755,0.099c1.064,1.394 2.129,2.793 3.279,4.112c2.626,3.019 5.619,5.633 9.02,7.756c0.803,0.497 0.844,0.879 0.124,1.521c-10.178,9.115 -20.346,18.241 -31.524,26.153c-0.669,0.469 -0.978,1.036 -1.096,1.851c-0.887,6.136 -2.65,11.978 -6.513,16.952c-2.471,3.181 -5.569,5.714 -9.331,7.223c-3.213,1.29 -6.515,2.372 -9.818,3.424c-4.78,1.516 -8.859,4.165 -12.471,7.565c-1.326,1.25 -2.464,2.695 -3.678,4.06c-0.183,0.209 -0.315,0.457 -0.47,0.689c-0.1,-0.07 -0.199,-0.139 -0.299,-0.203Z" style="fill:#fef2d1;fill-rule:nonzero;"/><path d="M99.283,144.446c6.514,6.258 12.905,12.394 19.454,18.687c-1.911,1.012 -3.57,1.903 -5.241,2.77c-10.131,5.258 -20.261,10.521 -30.41,15.743c-0.417,0.214 -1.122,0.255 -1.513,0.047c-0.683,-0.371 -0.259,-1.001 -0.01,-1.504c5.688,-11.556 11.379,-23.111 17.074,-34.667c0.155,-0.312 0.359,-0.602 0.646,-1.076Z" style="fill:#fef2d1;fill-rule:nonzero;"/></g></svg>