<?xml version="1.0" encoding="UTF-8" standalone="no"?><!DOCTYPE svg PUBLIC "-//W3C//DTD SVG 1.1//EN" "http://www.w3.org/Graphics/SVG/1.1/DTD/svg11.dtd"><svg width="100%" height="100%" viewBox="0 0 221 220" version="1.1" xmlns="http://www.w3.org/2000/svg" xmlns:xlink="http://www.w3.org/1999/xlink" xml:space="preserve" xmlns:serif="http://www.serif.com/" style="fill-rule:evenodd;clip-rule:evenodd;stroke-linejoin:round;stroke-miterlimit:2;"><g transform="matrix(2.84079,0,0,2.84079,-3197.28,-3485.55)"><g transform="matrix(0.19454,-0.980895,0.980895,0.19454,-326.998,2132.77)"><text x="1135.15px" y="1265.5px" style="font-family:'HypatiaSansPro-Semibold', 'Hypatia Sans Pro', sans-serif;font-weight:600;font-size:14px;fill:#FEF2D1;">O</text></g><g transform="matrix(0.529699,-0.848186,0.848186,0.529699,-529.181,1554.77)"><text x="1137.42px" y="1254.57px" style="font-family:'HypatiaSansPro-Semibold', 'Hypatia Sans Pro', sans-serif;font-weight:600;font-size:14px;fill:#FEF2D1;">N</text></g><g transform="matrix(0.871282,-0.490783,0.490783,0.871282,-462.366,722.575)"><text x="1146.35px" y="1242.75px" style="font-family:'HypatiaSansPro-Semibold', 'Hypatia Sans Pro', sans-serif;font-weight:600;font-size:14px;fill:#FEF2D1;">V</text></g><g transform="matrix(0.973258,-0.229713,0.229713,0.973258,-253.693,298.04)"><text x="1153.25px" y="1238.64px" style="font-family:'HypatiaSansPro-Semibold', 'Hypatia Sans Pro', sans-serif;font-weight:600;font-size:14px;fill:#FEF2D1;">A</text></g><g transform="matrix(0.971805,0.235787,-0.235787,0.971805,324.505,-240.398)"><text x="1167.43px" y="1236.66px" style="font-family:'HypatiaSansPro-Semibold', 'Hypatia Sans Pro', sans-serif;font-weight:600;font-size:14px;fill:#FEF2D1;">P</text></g><g transform="matrix(0.872023,0.489465,-0.489465,0.872023,756.335,-416.4)"><text x="1174.45px" y="1238.15px" style="font-family:'HypatiaSansPro-Semibold', 'Hypatia Sans Pro', sans-serif;font-weight:600;font-size:14px;fill:#FEF2D1;">R</text></g><g transform="matrix(0.733945,0.679209,-0.679209,0.733945,1157.9,-471.977)"><text x="1181.4px" y="1242px" style="font-family:'HypatiaSansPro-Semibold', 'Hypatia Sans Pro', sans-serif;font-weight:600;font-size:14px;fill:#FEF2D1;">E</text></g><g transform="matrix(0.524581,0.851361,-0.851361,0.524581,1625.08,-417.567)"><text x="1186.42px" y="1246.28px" style="font-family:'HypatiaSansPro-Semibold', 'Hypatia Sans Pro', sans-serif;font-weight:600;font-size:14px;fill:#FEF2D1;">N</text></g><g transform="matrix(0.212942,0.977065,-0.977065,0.212942,2163.67,-176.799)"><text x="1191.58px" y="1254.61px" style="font-family:'HypatiaSansPro-Semibold', 'Hypatia Sans Pro', sans-serif;font-weight:600;font-size:14px;fill:#FEF2D1;">D</text></g><g transform="matrix(-0.0980209,0.995184,-0.995184,-0.0980209,2568.27,199.763)"><text x="1193.61px" y="1263.75px" style="font-family:'HypatiaSansPro-Semibold', 'Hypatia Sans Pro', sans-serif;font-weight:600;font-size:14px;fill:#FEF2D1;">R</text></g><g transform="matrix(-0.328094,0.944645,-0.944645,-0.328094,2785.49,561.98)"><text x="1192.88px" y="1271.62px" style="font-family:'HypatiaSansPro-Semibold', 'Hypatia Sans Pro', sans-serif;font-weight:600;font-size:14px;fill:#FEF2D1;">E</text></g><g transform="matrix(-0.708159,0.706053,-0.706053,-0.708159,2935.26,1351.83)"><text x="1188.25px" y="1282.55px" style="font-family:'HypatiaSansPro-Semibold', 'Hypatia Sans Pro', sans-serif;font-weight:600;font-size:14px;fill:#FEF2D1;">U</text></g><g transform="matrix(-0.898773,0.438413,-0.438413,-0.898773,2808.75,1930.07)"><text x="1181.56px" y="1289.29px" style="font-family:'HypatiaSansPro-Semibold', 'Hypatia Sans Pro', sans-serif;font-weight:600;font-size:14px;fill:#FEF2D1;">N</text></g><g transform="matrix(-0.999084,-0.0427842,0.0427842,-0.999084,2278.93,2637.84)"><text x="1167.69px" y="1294.54px" style="font-family:'HypatiaSansPro-Semibold', 'Hypatia Sans Pro', sans-serif;font-weight:600;font-size:14px;fill:#FEF2D1;">C</text></g><g transform="matrix(-0.934635,-0.355609,0.355609,-0.934635,1781.44,2915.82)"><text x="1158.7px" y="1294.18px" style="font-family:'HypatiaSansPro-Semibold', 'Hypatia Sans Pro', sans-serif;font-weight:600;font-size:14px;fill:#FEF2D1;">A</text></g><g transform="matrix(-0.801643,-0.597803,0.597803,-0.801643,1300.51,3013.11)"><text x="1150.15px" y="1290.79px" style="font-family:'HypatiaSansPro-Semibold', 'Hypatia Sans Pro', sans-serif;font-weight:600;font-size:14px;fill:#FEF2D1;">F</text></g><g transform="matrix(-0.649708,-0.760184,0.760184,-0.649708,910.47,2993.61)"><text x="1144.96px" y="1287.03px" style="font-family:'HypatiaSansPro-Semibold', 'Hypatia Sans Pro', sans-serif;font-weight:600;font-size:14px;fill:#FEF2D1;">É</text></g><g transform="matrix(-0.393311,-0.919406,0.919406,-0.393311,410.682,2830.62)"><text x="1139.26px" y="1279.81px" style="font-family:'HypatiaSansPro-Semibold', 'Hypatia Sans Pro', sans-serif;font-weight:600;font-size:14px;fill:#FEF2D1;">?</text></g></g></svg>