<?xml version="1.0" encoding="UTF-8" standalone="no"?><!DOCTYPE svg PUBLIC "-//W3C//DTD SVG 1.1//EN" "http://www.w3.org/Graphics/SVG/1.1/DTD/svg11.dtd"><svg width="100%" height="100%" viewBox="0 0 199 200" version="1.1" xmlns="http://www.w3.org/2000/svg" xmlns:xlink="http://www.w3.org/1999/xlink" xml:space="preserve" xmlns:serif="http://www.serif.com/" style="fill-rule:evenodd;clip-rule:evenodd;stroke-linejoin:round;stroke-miterlimit:2;"><g><path d="M124.347,54.133c-30.514,-18.635 -68.065,-9.571 -87.657,16.495c-19.142,25.504 -17.227,61.141 4.673,84.617c21.731,23.308 57.425,27.699 84.166,10.19c14.92,-9.796 24.547,-23.476 28.488,-40.929c3.884,-17.396 0.9,-33.779 -8.22,-49.092c2.59,-2.59 5.179,-5.18 7.769,-7.713c0.225,-0.225 0.732,-0.338 1.126,-0.338c4.56,0.225 9.064,0.507 13.624,0.845c0.395,-0 0.845,0.563 1.07,0.957c3.997,7.713 6.812,15.763 8.332,24.321c3.66,20.155 1.183,39.578 -8.388,57.706c-12.893,24.434 -32.935,40.028 -59.846,46.334c-32.766,7.713 -67.558,-4.279 -88.952,-30.233c-10.865,-13.174 -17.677,-28.262 -19.761,-45.208c-3.377,-27.811 4.279,-52.301 23.252,-72.963c14.018,-15.257 31.471,-24.377 51.964,-27.53c18.803,-2.871 36.763,0 53.821,8.389c0.732,0.338 0.957,0.732 1.014,1.576c0.225,4.56 0.563,9.177 0.9,13.737c0.057,0.957 -0.112,1.633 -0.844,2.252c-2.252,2.196 -4.391,4.391 -6.531,6.587Z" style="fill:#fff1cf;fill-rule:nonzero;"/><path d="M129.527,91.74c7.769,15.595 5.404,39.015 -12.893,53.259c-17.846,13.962 -43.406,11.992 -59.001,-4.391c-15.595,-16.383 -16.326,-41.943 -1.632,-59.058c14.975,-17.396 37.945,-18.466 52.02,-11.259c-0.282,0.281 -0.507,0.563 -0.732,0.788c-5.067,5.067 -10.134,10.134 -15.201,15.144c-0.45,0.451 -1.182,0.732 -1.802,0.732c-14.018,-0.281 -24.996,11.316 -23.87,25.278c0.957,11.598 10.809,20.887 22.463,21.112c13.455,0.282 24.096,-10.246 23.927,-23.702c-0,-0.9 0.281,-1.52 0.901,-2.139c5.123,-5.067 10.19,-10.19 15.313,-15.257c0.113,-0.169 0.281,-0.338 0.507,-0.507Z" style="fill:#fff1cf;fill-rule:nonzero;"/><path d="M169.105,18.496c1.801,-1.858 3.603,-3.716 5.461,-5.574c2.983,-2.984 6.474,-2.984 9.458,0c1.069,1.07 2.139,2.083 3.153,3.153c2.589,2.646 2.589,6.249 0.056,8.895c-1.689,1.689 -3.378,3.378 -5.349,5.292c1.971,0.169 3.604,0.338 5.236,0.451c2.984,0.225 6.024,0.506 9.008,0.675c1.07,0.056 1.858,0.394 2.252,1.408c0.394,1.013 -0.169,1.745 -0.844,2.421c-6.306,6.305 -12.611,12.554 -18.861,18.86c-1.52,1.52 -2.983,2.983 -4.503,4.503c-2.421,2.421 -5.349,3.491 -8.783,3.21c-4.391,-0.338 -8.726,-0.676 -13.118,-0.958c-0.506,-0.056 -1.126,0.226 -1.463,0.563c-7.826,7.77 -15.595,15.539 -23.364,23.308c-7.657,7.657 -15.314,15.257 -22.914,22.914c-1.126,1.126 -2.477,1.689 -4.11,1.745c-1.689,0.056 -3.378,0.225 -5.067,0.225c-3.378,0.056 -5.686,-2.477 -5.404,-5.855c0.112,-1.52 0.281,-3.04 0.337,-4.56c0.113,-1.52 0.676,-2.759 1.746,-3.828c12.385,-12.386 24.771,-24.772 37.157,-37.101c2.758,-2.759 5.461,-5.518 8.276,-8.22c0.563,-0.563 0.844,-1.126 0.788,-1.97c-0.394,-4.786 -0.732,-9.571 -1.126,-14.357c-0.282,-3.321 0.619,-6.249 2.928,-8.613c7.881,-7.938 15.819,-15.82 23.701,-23.702c0.676,-0.676 1.408,-1.126 2.421,-0.788c1.013,0.394 1.295,1.126 1.351,2.139c0.338,4.842 0.788,9.74 1.183,14.582c-0,0.337 0.056,0.619 0.112,0.957c0.056,0.112 0.169,0.168 0.282,0.225Z" style="fill:#fff1cf;fill-rule:nonzero;"/></g></svg>