<?xml version="1.0" encoding="UTF-8" standalone="no"?><!DOCTYPE svg PUBLIC "-//W3C//DTD SVG 1.1//EN" "http://www.w3.org/Graphics/SVG/1.1/DTD/svg11.dtd"><svg width="100%" height="100%" viewBox="0 0 236 171" version="1.1" xmlns="http://www.w3.org/2000/svg" xmlns:xlink="http://www.w3.org/1999/xlink" xml:space="preserve" xmlns:serif="http://www.serif.com/" style="fill-rule:evenodd;clip-rule:evenodd;stroke-linejoin:round;stroke-miterlimit:2;"><g><path d="M229.702,170.835l-223.002,0c-4.931,0 -6.105,-1.115 -6.105,-5.987l-0,-158.198c-0,-4.931 1.115,-6.046 5.987,-6.046l223.003,0c4.872,0 5.987,1.115 5.987,6.105l0,158.197c0,4.755 -1.174,5.929 -5.87,5.929Zm-2.407,-121.333l-218.306,-0l-0,112.88l218.306,0l0,-112.88Zm-56.352,-20.487l38.625,0c3.698,0 5.753,-1.35 5.694,-3.933c-0,-2.172 -1.292,-4.168 -5.694,-4.168c-25.828,0.059 -51.656,0.059 -77.426,0.059c-0.88,0 -1.761,0.059 -2.583,0.176c-1.878,0.294 -2.935,1.526 -3.111,3.405c-0.235,1.996 0.646,3.404 2.524,4.05c0.94,0.352 1.996,0.352 2.994,0.352c12.914,0.059 25.946,0.059 38.977,0.059Zm-121.568,-10.096c-3.287,-0.059 -6.222,2.817 -6.222,6.046c-0,3.111 2.876,5.987 5.987,6.046c3.228,0.059 6.163,-2.818 6.163,-6.105c0,-3.111 -2.758,-5.929 -5.928,-5.987Zm12.033,6.104c0,3.17 2.994,6.105 6.164,6.047c3.17,-0.059 6.105,-3.053 6.046,-6.223c-0.059,-3.111 -2.935,-5.928 -6.046,-5.928c-3.287,-0 -6.222,2.876 -6.164,6.104Zm-36.394,0.059c0.059,3.346 2.935,6.105 6.164,5.988c3.169,-0.118 5.87,-2.935 5.87,-6.164c-0.059,-3.228 -2.818,-5.987 -5.988,-5.987c-3.404,-0 -6.105,2.759 -6.046,6.163Z" style="fill:#fff1cf;fill-rule:nonzero;"/><path d="M142.473,85.367c1.174,0.47 2.114,0.822 3.053,1.233c12.62,5.283 25.3,10.566 37.92,15.79c1.468,0.587 1.937,1.351 1.879,2.877c-0.118,2.7 0.058,5.4 -0.118,8.042c-0.058,0.645 -0.645,1.643 -1.174,1.937c-13.442,5.752 -27.002,11.388 -40.503,17.082c-0.235,0.117 -0.528,0.117 -1.115,0.176c-0,-4.285 -0.059,-8.512 0.058,-12.68c0,-0.469 0.998,-1.056 1.644,-1.291c8.101,-2.935 16.26,-5.811 24.361,-8.688c0.587,-0.234 1.174,-0.41 2.113,-0.821c-1.057,-0.411 -1.761,-0.705 -2.524,-0.998c-7.983,-2.818 -15.967,-5.636 -24.009,-8.394c-1.291,-0.411 -1.819,-0.998 -1.761,-2.466c0.235,-3.874 0.176,-7.69 0.176,-11.799Z" style="fill:#fff1cf;fill-rule:nonzero;"/><path d="M92.754,85.426c0,4.285 0.059,8.336 -0.058,12.386c-0,0.587 -0.998,1.467 -1.761,1.702c-8.101,2.994 -16.202,5.929 -24.302,8.864c-0.47,0.176 -0.94,0.352 -1.761,0.704c5.752,2.055 11.211,3.933 16.612,5.87c3.287,1.174 6.574,2.29 9.803,3.522c0.587,0.235 1.409,0.998 1.409,1.468c0.117,4.109 0.058,8.277 0.058,12.679c-0.88,-0.293 -1.467,-0.411 -2.054,-0.704c-12.856,-5.459 -25.711,-10.977 -38.625,-16.378c-1.291,-0.528 -1.761,-1.174 -1.702,-2.524c0.117,-2.759 -0.059,-5.518 0.058,-8.277c0.059,-0.704 0.646,-1.761 1.292,-2.054c13.266,-5.694 26.532,-11.27 39.857,-16.906c0.235,-0.117 0.529,-0.176 1.174,-0.352Z" style="fill:#fff1cf;fill-rule:nonzero;"/><path d="M135.253,67.816c-8.863,26.122 -17.61,51.832 -26.356,77.661l-10.566,-0c1.291,-3.875 2.524,-7.573 3.757,-11.212c7.278,-21.426 14.557,-42.851 21.777,-64.277c0.587,-1.702 1.351,-2.231 3.053,-2.113c2.7,0.058 5.4,-0.059 8.335,-0.059Z" style="fill:#fff1cf;fill-rule:nonzero;"/></g></svg>