<svg width="100%" height="100%" viewBox="0 0 2316 1233" version="1.1" xmlns="http://www.w3.org/2000/svg" xmlns:xlink="http://www.w3.org/1999/xlink" xml:space="preserve" xmlns:serif="http://www.serif.com/" style="fill-rule:evenodd;clip-rule:evenodd;stroke-linejoin:round;stroke-miterlimit:2;"><path d="M1751.68,58.346c-67.361,17.115 -135.449,38.131 -203.826,63.256c-49.479,18.186 -99.118,38.587 -148.734,61.108c-17.999,8.172 -36.005,16.553 -53.997,25.304c-22.82,11.102 -45.621,22.717 -68.395,34.765c-31.913,16.892 -63.764,34.72 -95.506,53.498c-29.862,17.657 -59.629,36.122 -89.256,55.486c-1.759,1.15 -3.514,2.338 -5.268,3.493c-25.781,16.94 -51.454,34.524 -77.003,52.77c-6.569,4.694 -13.14,9.391 -19.694,14.175c-21.406,15.614 -42.698,30.332 -63.881,44.379c-15.562,10.312 -31.075,20.304 -46.497,29.803c-13.147,8.095 -26.219,15.794 -39.253,23.305c-38.868,22.411 -77.212,42.327 -114.847,59.777c-54.846,25.439 -108.172,45.728 -159.558,61.528c-185.854,57.162 -345.753,54.796 -456.26,17.855c-7.341,-2.453 -14.55,-5.002 -21.448,-7.755c-30.067,-11.99 -55.695,-26.802 -76.635,-43.69c-4.033,-3.251 -7.865,-6.594 -11.545,-9.993l27.057,635.356l2288.86,-29.473l-51.155,-1201.19c-22.49,-0.984 -45.272,-1.48 -68.27,-1.48c-140.964,-0.002 -291.009,18.617 -444.89,57.72Z" style="fill-rule:nonzero;"/></svg>